<!DOCTYPE html>
<html lang="ja">
	<head>
		<meta charset="utf-8">
		<meta http-equiv="X-UA-Compatible" content="IE=edge,chrome=1">
		<meta name="viewport" content="width=device-width, initial-scale=1">
		 
			
  
    <meta name="twitter:card" content="summary"/>
    
      <meta name="twitter:image" content="https://dream-yt.github.io/images/avatar.png" />
    
  
  
  <meta name="twitter:title" content="macで動画のビットレートを変更したい"/>
  <meta name="twitter:description" content="ffmpegを使う $ brew install ffmpeg こんな感じで使う $ ffmpeg -i ./inputfile.mp4 -b:v 2M -bufsize 10M ./outfile.mp4 -b:v 2M 指定したいbitrate。KBで指定したい場合は 320K のようにKを使う -bufsize 10M どれく"/>
  
    <meta name="twitter:site" content="@your_twitter_id"/>
  
  
  
  
    <meta name="twitter:creator" content="@site_author"/>
  



		
		<meta name="author" content="site_author">
		<meta name="description" content="Site Description">
		<meta name="generator" content="Hugo 0.51" />
		<title>macで動画のビットレートを変更したい &middot; sacre</title>
		<link rel="shortcut icon" href="https://dream-yt.github.io/images/favicon.ico">
		<link rel="stylesheet" href="https://dream-yt.github.io/css/style.css">
		<link rel="stylesheet" href="https://dream-yt.github.io/css/highlight.css">

		
		<link rel="stylesheet" href="https://dream-yt.github.io/css/font-awesome.min.css">
		

		
		<link href="https://dream-yt.github.io/index.xml" rel="alternate" type="application/rss+xml" title="sacre" />
		

		
	</head>

    <body>
       <nav class="main-nav">
	
	
		<a href='https://dream-yt.github.io/'> <span class="arrow">←</span>Home</a>
	
	<a href='https://dream-yt.github.io/posts'>Archive</a>
	<a href='https://dream-yt.github.io/tags'>Tags</a>
	<a href='https://dream-yt.github.io/about'>About</a>

	

	
	<a class="cta" href="https://dream-yt.github.io/index.xml">Subscribe</a>
	
</nav>


        <section id="wrapper" class="post">
            <article>
                <header>
                    <h1>
                        macで動画のビットレートを変更したい
                    </h1>
                    <h2 class="headline">
                    Feb 13, 2019 15:20
                    · 345 words
                    · 1 minute read
                      <span class="tags">
                      
                      </span>
                    </h2>
                </header>
                
                  
                    <div id="toc">
                      <nav id="TableOfContents">
<ul>
<li>
<ul>
<li>
<ul>
<li><a href="#ffprobe">ffprobe</a></li>
<li><a href="#参考">参考</a></li>
</ul></li>
</ul></li>
</ul>
</nav>
                    </div>
                  
                
                <section id="post-body">
                    

<p>ffmpegを使う</p>

<pre><code class="language-bash">$ brew install ffmpeg
</code></pre>

<p>こんな感じで使う</p>

<pre><code class="language-bash">$ ffmpeg -i ./inputfile.mp4 -b:v 2M -bufsize 10M ./outfile.mp4
</code></pre>

<ul>
<li><code>-b:v 2M</code>

<ul>
<li>指定したいbitrate。KBで指定したい場合は <code>320K</code> のようにKを使う</li>
</ul></li>
<li><code>-bufsize 10M</code>

<ul>
<li>どれくらいの領域を使ってbitrateを計算するか</li>
<li>これが大きいと指定した値に近いbitrateで動画が出来上がる</li>
</ul></li>
</ul>

<p>bufsizeを指定しないと指定した通りのbitrateにならなかったのでbufsize指定した方がよさそう</p>

<h3 id="ffprobe">ffprobe</h3>

<p>ffmpegを入れるとffprobeというコマンドも使えるようになる</p>

<p>これは動画の詳細な情報を見るのに便利</p>

<pre><code class="language-console">$ ffprobe ./outfile.mp4 -hide_banner
Input #0, mov,mp4,m4a,3gp,3g2,mj2, from './outfile.mp4':
  Metadata:
    major_brand     : isom
    minor_version   : 512
    compatible_brands: isomiso2avc1mp41
    encoder         : Lavf58.12.100
  Duration: 00:00:15.08, start: 0.000000, bitrate: 1672 kb/s
    Stream #0:0(und): Video: h264 (High) (avc1 / 0x31637661), yuv420p, 1280x720 [SAR 1:1 DAR 16:9], 1538 kb/s, 23.98 fps, 23.98 tbr, 24k tbn, 47.95 tbc (default)
    Metadata:
      handler_name    : VideoHandler
    Stream #0:1(jpn): Audio: aac (LC) (mp4a / 0x6134706D), 48000 Hz, stereo, fltp, 130 kb/s (default)
    Metadata:
      handler_name    : SoundHandler
</code></pre>

<ul>
<li><code>-hide_banner</code>

<ul>
<li>デフォルトだとライセンスの表示などが出力されるのでそれの抑制</li>
</ul></li>
</ul>

<h3 id="参考">参考</h3>

<ul>
<li><a href="https://trac.ffmpeg.org/wiki/Limiting%20the%20output%20bitrate">Limiting the output bitrate – FFmpeg</a></li>
</ul>

                </section>
            </article>

            
                <a class="twitter" href="https://twitter.com/intent/tweet?text=https%3a%2f%2fdream-yt.github.io%2fpost%2fffmpeg-for-bitrate%2f - mac%e3%81%a7%e5%8b%95%e7%94%bb%e3%81%ae%e3%83%93%e3%83%83%e3%83%88%e3%83%ac%e3%83%bc%e3%83%88%e3%82%92%e5%a4%89%e6%9b%b4%e3%81%97%e3%81%9f%e3%81%84 by @your_twitter_id"><span class="icon-twitter"> tweet</span></a>

<a class="facebook" href="#" onclick="
    window.open(
      'https://www.facebook.com/sharer/sharer.php?u='+encodeURIComponent(location.href),
      'facebook-share-dialog',
      'width=626,height=436');
    return false;"><span class="icon-facebook-rect"> Share</span>
</a>

            

            
                <div id="disqus_thread"></div>
<script type="text/javascript">
    var disqus_shortname = 'your_disqus_short_name'; 

     
    (function() {
        var dsq = document.createElement('script'); dsq.type = 'text/javascript'; dsq.async = true;
        dsq.src = '//' + disqus_shortname + '.disqus.com/embed.js';
        (document.getElementsByTagName('head')[0] || document.getElementsByTagName('body')[0]).appendChild(dsq);
    })();
</script>
<noscript>Please enable JavaScript to view the <a href="https://disqus.com/?ref_noscript">comments powered by Disqus.</a></noscript>
</div>

            

            

            <footer id="footer">
    
        <div id="social">

	
	
    <a class="symbol" href="https://github.com/dream-yt/sacre">
        <i class="fa fa-github-square"></i>
    </a>
    
    <a class="symbol" href="https://twitter.com/FUTABA_SACRE">
        <i class="fa fa-twitter-square"></i>
    </a>
    


</div>

    
    <p class="small">
    
       © Copyright 2021 <i class="fa fa-heart" aria-hidden="true"></i> site_author
    
    </p>
    <p class="small">
        Powered by <a href="http://www.gohugo.io/">Hugo</a> Theme By <a href="https://github.com/nodejh/hugo-theme-cactus-plus">nodejh</a>
    </p>
</footer>

        </section>

        <script src="https://dream-yt.github.io/js/jquery-3.3.1.min.js"></script>
<script src="https://dream-yt.github.io/js/main.js"></script>
<script src="https://dream-yt.github.io/js/highlight.min.js"></script>
<script>hljs.initHighlightingOnLoad();</script>




  




    </body>
</html>
